<svg width="29" height="29" viewBox="0 0 29 29" fill="none" xmlns="http://www.w3.org/2000/svg">
<g clip-path="url(#clip0_40_9)">
<path d="M16.564 29L5.02124 21.1592L7.16612 18.0052L15.7247 23.8188L25.9689 10.4291L29 12.7454L16.564 29Z" fill="#231F20"/>
<path d="M15.1192 21.3985L3.19434 13.1582L12.6643 0L21.2788 5.76391L21.3843 5.86013C22.3408 6.73398 22.9371 7.93275 23.0567 9.22239C23.1764 10.512 22.8108 11.8 22.0314 12.8347C21.252 13.8694 20.1147 14.5767 18.8415 14.8184C17.5684 15.0602 16.2508 14.819 15.146 14.142L15.0783 14.1002L10.7647 10.9277L13.0275 7.85643L17.1982 10.9249C17.7974 11.2563 18.5722 11.096 18.9875 10.5456C19.3926 10.0078 19.3452 9.24385 18.8928 8.75755L13.6071 5.22031L8.56153 12.2303L17.2891 18.2613L15.1192 21.3985Z" fill="#231F20"/>
<path d="M2.1265 14.8317L0.000488281 17.9984L2.96226 19.9845L5.08827 16.8177L2.1265 14.8317Z" fill="#231F20"/>
</g>
<defs>
<clipPath id="clip0_40_9">
<rect width="29" height="29" fill="white"/>
</clipPath>
</defs>
</svg>
