<svg width="81" height="81" viewBox="0 0 81 81" fill="none" xmlns="http://www.w3.org/2000/svg">
<g clip-path="url(#clip0_73_173)">
<path d="M80.495 40.4988C80.495 49.8735 80.51 59.2482 80.495 68.6204C80.495 74.5902 76.6051 79.2801 70.8215 80.345C70.0813 80.4635 69.3318 80.5145 68.5823 80.4975C49.8666 80.4975 31.1509 80.4975 12.4353 80.4975C6.44634 80.4975 1.75239 76.6401 0.66782 70.8628C0.545651 70.1193 0.492824 69.3661 0.510019 68.6129C0.50334 49.8701 0.5 31.1274 0.5 12.3847C0.5 6.43234 4.41246 1.71499 10.181 0.657522C10.9211 0.537415 11.6706 0.4847 12.4202 0.500027C31.1359 0.500027 49.8516 0.500027 68.5673 0.500027C74.5512 0.500027 79.2476 4.34991 80.3247 10.1322C80.4579 10.998 80.5133 11.874 80.49 12.7496C80.5 21.996 80.5017 31.2457 80.495 40.4988ZM8.51528 32.5215C8.49274 32.864 8.46518 33.1065 8.46518 33.3515C8.46518 45.0995 8.46518 56.8491 8.46518 68.6004C8.46518 71.1403 9.92547 72.5278 12.553 72.5278C31.1785 72.5278 49.8023 72.5278 68.4245 72.5278C71.1171 72.5278 72.5048 71.1228 72.5048 68.4054C72.5048 56.7808 72.5048 45.1561 72.5048 33.5315C72.5048 33.204 72.4722 32.8765 72.4547 32.5315L8.51528 32.5215ZM72.4522 24.4618C72.481 24.3089 72.501 24.1545 72.5123 23.9993C72.5123 20.0619 72.5423 16.1245 72.5123 12.1897C72.4897 9.87223 70.9919 8.48978 68.5923 8.48978C49.875 8.48978 31.1584 8.48978 12.4428 8.48978C9.91795 8.48978 8.49023 9.91973 8.48272 12.4422C8.48272 16.162 8.48272 19.8794 8.48272 23.5968C8.48272 23.8693 8.51778 24.1418 8.53782 24.4643L72.4522 24.4618Z" fill="#4B70F5"/>
<path d="M44.4563 51.1934C44.4563 54.3433 44.4839 57.4957 44.4563 60.6481C44.4327 61.5836 44.0776 62.4805 43.4543 63.1795C42.8309 63.8785 41.9795 64.3344 41.0513 64.4662C40.123 64.5981 39.178 64.3974 38.384 63.8998C37.5899 63.4022 36.9983 62.6398 36.714 61.7481C36.5718 61.2704 36.5025 60.774 36.5086 60.2756C36.4953 54.1908 36.4953 48.1077 36.5086 42.0262C36.5086 40.0713 37.5281 38.6313 39.2038 38.0638C40.8219 37.5163 42.6829 37.9938 43.6147 39.4263C44.1109 40.2059 44.395 41.1011 44.4388 42.0237C44.5364 45.0786 44.4763 48.141 44.4763 51.1984L44.4563 51.1934Z" fill="#4B70F5"/>
<path d="M28.5059 55.1808C28.5059 56.9308 28.5209 58.6807 28.5059 60.4307C28.4808 62.6806 26.8452 64.4305 24.6986 64.503C22.4894 64.593 20.6083 62.9881 20.5482 60.7007C20.448 57.0208 20.448 53.3392 20.5482 49.656C20.6108 47.3611 22.4919 45.7711 24.7062 45.8761C26.8803 45.9786 28.4859 47.6861 28.5059 49.946C28.5184 51.6859 28.5059 53.4334 28.5059 55.1808Z" fill="#4B70F5"/>
<path d="M52.4941 55.1359C52.4941 53.3859 52.4766 51.636 52.4941 49.886C52.5192 47.6761 54.1047 45.9911 56.2513 45.8661C58.438 45.7362 60.3591 47.2536 60.4343 49.501C60.5645 53.2709 60.562 57.0508 60.4343 60.8207C60.3616 63.0706 58.4455 64.5981 56.2638 64.4881C55.2397 64.4278 54.2782 63.9763 53.5786 63.2274C52.8791 62.4785 52.4952 61.4895 52.5066 60.4657C52.4766 58.6932 52.4941 56.9158 52.4941 55.1359Z" fill="#4B70F5"/>
<path d="M59.1568 20.4994C57.441 20.4994 55.7253 20.5194 54.0095 20.4994C51.5548 20.4644 49.8491 18.8144 49.8516 16.517C49.8541 14.2196 51.5799 12.5496 54.0095 12.5396C57.441 12.5213 60.8726 12.5213 64.3041 12.5396C66.7413 12.5396 68.462 14.2146 68.4645 16.517C68.467 18.8194 66.7613 20.4594 64.3041 20.4994C62.5908 20.5194 60.8651 20.4994 59.1568 20.4994Z" fill="#4B70F5"/>
</g>
<defs>
<clipPath id="clip0_73_173">
<rect width="80" height="80" fill="white" transform="translate(0.5 0.5)"/>
</clipPath>
</defs>
</svg>
