<svg width="101" height="100" viewBox="0 0 101 100" fill="none" xmlns="http://www.w3.org/2000/svg">
<g clip-path="url(#clip0_73_184)">
<path d="M57.2139 82.8812H4.68527V93.8272H57.2139V82.8812Z" fill="#E2EDFF"/>
<path d="M79.3439 1.61109H49.4804V20.9755H79.3439V1.61109Z" fill="#C2D4F8"/>
<path d="M0.5 41.7526C0.622712 41.2539 0.737592 40.7499 0.868137 40.2512C1.80545 36.6948 4.82104 34.4257 8.68516 34.4048C12.2673 34.3865 15.8495 34.4048 19.4342 34.4048H21.3689C16.6693 33.799 12.7294 31.8511 9.74519 28.1641C6.76093 24.4771 5.53903 20.1687 6.28314 15.466C7.62253 6.97705 14.7163 1.36564 22.7475 1.62676C32.4809 1.92966 37.8071 9.41327 38.5643 15.9882C39.6765 25.6495 32.2772 33.6423 23.5777 34.4022H25.4054C34.5905 34.4022 43.7765 34.4065 52.9634 34.4152C53.7089 34.4059 54.4507 34.5197 55.1591 34.7521C55.9583 34.9975 56.6654 35.4771 57.189 36.1288C57.7127 36.7806 58.0288 37.5744 58.0964 38.4077C58.3288 40.4183 57.5742 42.0137 55.8093 42.9981C53.2506 44.4212 50.6423 45.7582 48.0549 47.129C44.431 49.0456 40.8123 50.9727 37.1753 52.8736C36.909 52.979 36.6848 53.1689 36.5371 53.4143C36.3894 53.6597 36.3265 53.9468 36.3581 54.2314C36.3868 59.9316 36.3763 65.6318 36.3737 71.3319C36.3737 73.0214 35.6296 74.2277 34.3398 74.6795C32.272 75.4002 30.306 73.917 30.2773 71.5696C30.246 69.3214 30.2773 67.0731 30.2773 64.8249C30.2773 60.5922 30.2773 56.3569 30.2773 52.1216C30.2773 50.4948 30.9065 49.3694 32.3921 48.5991C37.0108 46.2177 41.5955 43.7449 46.1907 41.3061C46.5014 41.139 46.8043 40.9562 47.3865 40.6246C46.8382 40.5645 46.5771 40.5123 46.3186 40.5097H8.59378C7.23873 40.5097 6.67477 41.0607 6.67216 42.3897C6.67216 49.0047 6.67216 55.6197 6.67216 62.2346C6.67216 63.5611 7.24134 64.1042 8.59378 64.1147C9.40838 64.1147 10.223 64.1147 11.0376 64.1147C13.2072 64.1408 14.4761 65.4203 14.484 67.6058C14.484 70.7392 14.484 73.8726 14.484 76.9877V78.1367C14.92 78.1549 15.2672 78.1837 15.6119 78.1863C28.2173 78.1863 40.8227 78.1863 53.4281 78.1863C54.0808 78.1863 54.4725 78.0218 54.8119 77.416C56.3236 74.7865 58.7047 73.5697 61.6786 73.4992C63.8273 73.4444 65.9761 73.4992 68.1275 73.4836C68.697 73.4762 69.2655 73.4335 69.8298 73.3556C59.7178 72.554 53.8929 63.804 54.5456 55.879C55.3158 46.6381 62.655 40.5593 71.0125 40.7003C80.1663 40.857 86.1949 47.6826 86.9834 55.1088C88.0591 65.2401 80.4561 72.6767 72.0308 73.4157C72.4407 73.4392 72.8532 73.4809 73.2657 73.4809C75.4145 73.4809 77.5633 73.4809 79.7146 73.4809C84.6283 73.4966 87.9807 76.8755 87.9886 81.7871C87.9886 85.4035 88.0225 89.02 87.9651 92.6339C87.9651 93.6026 88.2601 93.8585 89.1818 93.8115C90.6439 93.7384 92.1138 93.7723 93.5785 93.8115C94.1712 93.8115 94.3774 93.6131 94.3618 93.0282C94.3409 90.3569 94.3618 87.6857 94.3252 85.0145C94.294 84.8454 94.2231 84.6862 94.1182 84.55C94.0133 84.4138 93.8775 84.3045 93.7221 84.2311C92.0198 83.6097 91.0538 82.3668 91.2548 80.9358C91.495 79.2464 92.8213 78.1993 94.7299 78.1811C95.5785 78.1811 96.4244 78.1549 97.2703 78.1811C99.1319 78.2516 100.437 79.4736 100.456 81.3275C100.5 86.4741 100.49 91.6234 100.456 96.77C100.456 98.509 99.3146 99.4281 97.8082 99.9895H3.23622C2.59255 99.7925 2.00678 99.4412 1.52989 98.9661C1.053 98.4909 0.699449 97.9065 0.5 97.2635V80.8444C0.792421 80.3092 1.02218 79.7216 1.39554 79.2516C2.07437 78.403 3.05607 78.1811 4.10043 78.1837H8.34575V70.2849C7.96978 70.2065 7.63036 70.1151 7.28311 70.0655C5.74534 69.8646 4.30475 69.2016 3.15186 68.1642C1.99896 67.1268 1.18805 65.7639 0.826362 64.2557C0.727148 63.8536 0.609658 63.4514 0.5 63.0572V41.7526ZM30.2068 93.8063C37.6975 93.8063 45.1855 93.8063 52.6762 93.822C53.4594 93.822 53.7545 93.6209 53.7362 92.7905C53.6866 90.2838 53.6996 87.7745 53.7362 85.2678C53.7362 84.5836 53.6004 84.286 52.8276 84.2886C37.7505 84.306 22.6726 84.306 7.59381 84.2886C6.81054 84.2886 6.67738 84.5862 6.68522 85.2678C6.71655 87.7092 6.75049 90.1559 6.67216 92.5947C6.63822 93.6183 6.97764 93.8324 7.93584 93.8272C15.356 93.788 22.7814 93.8063 30.2068 93.8063ZM70.8402 46.7608C68.8146 46.7624 66.8349 47.3649 65.1518 48.4921C63.4687 49.6194 62.1578 51.2206 61.385 53.0933C60.6122 54.9659 60.4123 57.0257 60.8105 59.012C61.2087 60.9984 62.1872 62.8219 63.6221 64.2518C65.057 65.6817 66.8839 66.6538 68.8714 67.045C70.8589 67.4361 72.9178 67.2288 74.7874 66.4493C76.6571 65.6697 78.2535 64.353 79.3746 62.6657C80.4957 60.9784 81.091 58.9964 81.0854 56.9705C81.0784 54.2585 79.9957 51.6601 78.0748 49.7459C76.1539 47.8317 73.5519 46.7581 70.8402 46.7608ZM32.614 17.957C32.614 12.2751 28.1364 7.68729 22.5516 7.67162C16.7189 7.65334 12.1524 12.1106 12.142 17.8056C12.142 23.5501 16.604 28.1327 22.2488 28.1432C28.0606 28.1562 32.614 23.6833 32.614 17.957ZM59.8927 93.7567H81.8242C81.8451 93.3807 81.8765 93.0647 81.8765 92.7462C81.8765 89.0366 81.8765 85.3252 81.8765 81.6121C81.8765 80.1342 81.3543 79.6015 79.8922 79.5989H61.8248C60.3627 79.5989 59.8431 80.1212 59.8405 81.6095C59.8405 85.3226 59.8405 89.0339 59.8405 92.7435C59.8405 93.0621 59.8718 93.3781 59.8927 93.7567Z" fill="#FE7830"/>
<path d="M64.621 0H79.5658C82.0723 0 83.289 1.21158 83.289 3.70525C83.289 9.53338 83.289 15.365 83.289 21.2001C83.289 23.6389 82.0618 24.8714 79.6337 24.874C72.1117 24.874 64.5923 24.874 57.0703 24.8975C56.4351 24.9149 55.8163 25.1034 55.2792 25.4432C52.7049 27.0935 50.1906 28.8378 47.6215 30.5011C45.6006 31.8067 43.2743 30.8014 42.8827 28.4513C42.7913 27.903 42.948 27.2946 43.0811 26.7384C43.9584 23.0436 44.867 19.3566 45.7495 15.6644C45.854 15.2237 45.9083 14.7726 45.9113 14.3197C45.9244 10.7685 45.9113 7.21989 45.9113 3.67131C45.9113 1.23421 47.1298 0.015667 49.5666 0.015667C54.5882 0.00522234 59.6064 0 64.621 0ZM50.7624 20.8032L50.9739 20.9755C51.4282 20.6779 51.9034 20.4089 52.3315 20.0747C53.5874 19.0955 54.9659 18.7038 56.5899 18.7221C63.1041 18.7926 69.6183 18.7378 76.1325 18.7665C76.9314 18.7665 77.1977 18.555 77.1899 17.722C77.1481 14.1734 77.1638 10.6222 77.1768 7.07105C77.1768 6.48354 77.1403 6.09708 76.3675 6.09969C68.5174 6.12058 60.6673 6.12058 52.8172 6.09969C52.2245 6.09969 52.0182 6.30337 52.0339 6.88305C52.06 8.73959 51.9895 10.5987 52.0548 12.4527C52.1173 14.3727 51.8884 16.291 51.376 18.1424C51.1331 19.0354 50.9634 19.9232 50.7624 20.8032Z" fill="#FE7830"/>
</g>
<defs>
<clipPath id="clip0_73_184">
<rect width="100" height="100" fill="white" transform="translate(0.5)"/>
</clipPath>
</defs>
</svg>
