<svg width="364" height="295" viewBox="0 0 364 295" fill="none" xmlns="http://www.w3.org/2000/svg">
<path d="M12.8207 153.984C29.9008 173.319 51.5196 180.832 62.1809 204.324C69.4893 220.427 66.0607 239.492 71.4603 256.331C78.8613 279.411 103.177 294.916 127.415 295C151.654 295.083 174.759 281.35 189.142 261.841C193.859 255.443 197.947 248.249 204.56 243.838C214.03 237.52 226.315 238.332 237.654 237.322C265.612 234.831 292.107 219.131 307.719 195.805C307.719 195.805 348.218 148.02 319.548 79.6594C311.215 59.7893 297.706 41.5409 279.078 30.7125C260.451 19.8833 228.036 19.6258 208.856 29.4443C188.464 39.883 174.907 62.7625 152.556 67.7883C139.601 70.701 126.225 66.9156 113.179 64.4398C94.8784 60.9658 76.2237 58.808 57.7449 61.1543C35.9956 63.9163 14.0579 74.8213 3.9125 99.3393C0.359298 107.926 -0.83492 117.345 0.581478 126.53C1.8506 134.766 5.06043 145.199 12.8207 153.984Z" fill="#F5F5FF"/>
<path d="M180.893 12.794C176.192 6.89213 168.868 3.67064 161.543 1.85539C151.438 -0.649094 140.57 -0.841807 130.767 2.66498C120.964 6.17176 112.366 13.6473 108.751 23.4111C105.137 33.1749 107.129 45.1116 114.629 52.333C118.832 56.3793 124.734 58.5555 130.537 58.5396C133.978 58.9065 137.493 58.5194 140.727 57.2739C147.924 54.5018 153.212 48.2094 160.114 44.7666C167.614 41.0258 177.253 40.4283 182.329 33.7598C186.899 27.7553 185.594 18.6959 180.893 12.794Z" fill="#F5F5FF"/>
<path d="M45.6807 221.949C44.8971 220.344 44.1683 218.72 43.692 217.001C42.1679 211.498 43.2754 205.22 40.3197 200.333C36.6083 194.196 27.4661 193.076 21.2467 196.648C15.0274 200.221 11.4708 207.211 9.95427 214.222C9.0201 218.539 8.74827 223.137 10.2269 227.299C11.9472 232.138 15.8597 235.899 20.1257 238.759C24.869 241.938 30.4083 244.272 36.116 244.079C38.6576 243.993 41.2194 243.319 43.4799 242.138C45.2624 241.364 46.8446 240.167 47.9336 238.615C48.7247 237.678 49.3921 236.637 49.8802 235.49C51.9076 230.719 50.0788 224.441 45.6807 221.949Z" fill="#F5F5FF"/>
<path d="M270.573 221.541H92.3747C90.7024 221.541 89.334 220.172 89.334 218.5V104.166C89.334 102.493 90.7024 101.125 92.3747 101.125H270.573C272.245 101.125 273.614 102.493 273.614 104.166V218.5C273.614 220.172 272.245 221.541 270.573 221.541Z" fill="#7B70EE"/>
<path d="M269.053 109.881H93.8954V209.863H269.053V109.881Z" fill="#D5CBFB"/>
<path d="M182.576 105.144C182.576 105.753 182.082 106.245 181.474 106.245C180.865 106.245 180.373 105.752 180.373 105.144C180.373 104.536 180.866 104.043 181.474 104.043C182.082 104.044 182.576 104.536 182.576 105.144Z" fill="#D5CBFB"/>
<path d="M298.416 260.831L275.781 224.807C274.503 222.774 272.271 221.54 269.87 221.54H177.529H172.42H93.0791C90.678 221.54 88.4453 222.774 87.1678 224.807L64.5323 260.831C63.8919 261.851 63.6638 263.062 63.8641 264.233H299.084C299.284 263.063 299.057 261.851 298.416 260.831Z" fill="#D5CBFB"/>
<path d="M63.8641 264.234C63.9053 264.475 63.9583 264.715 64.0366 264.951L64.3934 266.021C65.0549 268.005 66.9106 269.342 69.0011 269.342H172.419H177.528H293.946C296.036 269.342 297.893 268.004 298.554 266.021L298.91 264.951C298.989 264.715 299.042 264.475 299.083 264.234H63.8641Z" fill="#7B70EE"/>
<path d="M101.596 239.318L102.698 236.893H97.2441L96.0768 239.318H101.596Z" fill="#7B70EE"/>
<path d="M111.204 232.415L111.746 231.15L112.241 229.99H106.964L105.861 232.415H111.204Z" fill="#7B70EE"/>
<path d="M103.825 236.893L102.724 239.318H108.255L109.291 236.893H103.825Z" fill="#7B70EE"/>
<path d="M103.165 235.867L104.267 233.441H98.9063L97.7382 235.867H103.165Z" fill="#7B70EE"/>
<path d="M214.217 229.99L214.827 232.415H219.517L218.842 229.99H214.217Z" fill="#7B70EE"/>
<path d="M130.062 236.893L129.321 239.318H134.898L135.606 236.893H130.062Z" fill="#7B70EE"/>
<path d="M123.54 236.893L122.668 239.318H128.248L128.989 236.893H123.54Z" fill="#7B70EE"/>
<path d="M116.989 236.893L116.018 239.318H121.577L122.45 236.893H116.989Z" fill="#7B70EE"/>
<path d="M110.407 236.893L109.371 239.318H114.912L115.883 236.893H110.407Z" fill="#7B70EE"/>
<path d="M219.908 229.99L220.583 232.415H224.965L224.255 229.99H219.908Z" fill="#7B70EE"/>
<path d="M148.922 233.441L148.312 235.867H152.722L153.266 233.441H148.922Z" fill="#7B70EE"/>
<path d="M196.767 229.99L197.18 232.415H202.269L201.79 229.99H196.767Z" fill="#7B70EE"/>
<path d="M148.122 232.415L148.732 229.99H144.106L143.431 232.415H148.122Z" fill="#7B70EE"/>
<path d="M142.365 232.415L143.041 229.99H138.693L137.984 232.415H142.365Z" fill="#7B70EE"/>
<path d="M153.497 232.415L154.041 229.99H149.79L149.18 232.415H153.497Z" fill="#7B70EE"/>
<path d="M225.325 229.99L226.034 232.415H231.518L230.775 229.99H225.325Z" fill="#7B70EE"/>
<path d="M126.024 229.99L125.151 232.415H130.358L130.741 231.164L131.1 229.99H126.024Z" fill="#7B70EE"/>
<path d="M124.061 232.415L124.933 229.99H119.753L118.782 232.415H124.061Z" fill="#7B70EE"/>
<path d="M113.358 229.99L112.321 232.415H117.676L118.181 231.153L118.647 229.99H113.358Z" fill="#7B70EE"/>
<path d="M208.907 229.99L209.451 232.415H213.768L213.158 229.99H208.907Z" fill="#7B70EE"/>
<path d="M202.836 229.99L203.315 232.415H208.399L207.855 229.99H202.836Z" fill="#7B70EE"/>
<path d="M136.914 232.415L137.624 229.99H132.173L131.431 232.415H136.914Z" fill="#7B70EE"/>
<path d="M143.327 228.964L143.957 226.706H139.653L138.992 228.964H143.327Z" fill="#7B70EE"/>
<path d="M137.923 228.964L138.583 226.706H133.178L132.487 228.964H137.923Z" fill="#7B70EE"/>
<path d="M190.774 229.99L191.057 232.415H196.139L195.726 229.99H190.774Z" fill="#7B70EE"/>
<path d="M160.315 228.964L160.761 226.706H155.832L155.325 228.964H160.315Z" fill="#7B70EE"/>
<path d="M154.272 228.964L154.78 226.706H150.616L150.049 228.964H154.272Z" fill="#7B70EE"/>
<path d="M148.99 228.964L149.557 226.706H145.022L144.393 228.964H148.99Z" fill="#7B70EE"/>
<path d="M250.708 229.99L251.744 232.415H257.088L255.985 229.99H250.708Z" fill="#7B70EE"/>
<path d="M112.681 228.964L113.646 226.706H108.456L107.43 228.964H112.681Z" fill="#7B70EE"/>
<path d="M119.058 228.964L119.962 226.706H114.762L113.797 228.964H119.058Z" fill="#7B70EE"/>
<path d="M131.414 228.964L132.104 226.706H127.206L126.393 228.964H131.414Z" fill="#7B70EE"/>
<path d="M257.113 229.99L258.215 232.415H263.548L262.379 229.99H257.113Z" fill="#7B70EE"/>
<path d="M125.303 228.964L126.115 226.706H121.068L120.164 228.964H125.303Z" fill="#7B70EE"/>
<path d="M231.848 229.99L232.591 232.415H237.797L236.925 229.99H231.848Z" fill="#7B70EE"/>
<path d="M159.795 236.893L159.316 239.318H164.592L165.005 236.893H159.795Z" fill="#7B70EE"/>
<path d="M136.676 236.893L135.967 239.318H140.441L141.117 236.893H136.676Z" fill="#7B70EE"/>
<path d="M153.544 236.893L153 239.318H158.27L158.748 236.893H153.544Z" fill="#7B70EE"/>
<path d="M142.183 236.893L141.508 239.318H146.385L146.995 236.893H142.183Z" fill="#7B70EE"/>
<path d="M148.054 236.893L147.443 239.318H151.947L152.491 236.893H148.054Z" fill="#7B70EE"/>
<path d="M167.222 229.99L166.809 232.415H171.892L172.174 229.99H167.222Z" fill="#7B70EE"/>
<path d="M166.356 228.964L166.741 226.706H161.807L161.361 228.964H166.356Z" fill="#7B70EE"/>
<path d="M160.476 233.441L159.997 235.867H165.18L165.593 233.441H160.476Z" fill="#7B70EE"/>
<path d="M244.301 229.99L245.272 232.415H250.628L249.591 229.99H244.301Z" fill="#7B70EE"/>
<path d="M171.49 235.867L171.772 233.441H166.634L166.221 235.867H171.49Z" fill="#7B70EE"/>
<path d="M238.015 229.99L238.888 232.415H244.167L243.195 229.99H238.015Z" fill="#7B70EE"/>
<path d="M104.733 232.415L105.836 229.99H100.568L99.4003 232.415H104.733Z" fill="#7B70EE"/>
<path d="M221.441 239.318L220.765 236.893H215.954L216.563 239.318H221.441Z" fill="#7B70EE"/>
<path d="M143.145 233.441L142.47 235.867H147.253L147.863 233.441H143.145Z" fill="#7B70EE"/>
<path d="M230.461 228.964L229.771 226.706H224.366L225.025 228.964H230.461Z" fill="#7B70EE"/>
<path d="M242.784 228.964L241.881 226.706H236.833L237.646 228.964H242.784Z" fill="#7B70EE"/>
<path d="M236.555 228.964L235.742 226.706H230.845L231.535 228.964H236.555Z" fill="#7B70EE"/>
<path d="M207.624 228.964L207.117 226.706H202.188L202.633 228.964H207.624Z" fill="#7B70EE"/>
<path d="M201.588 228.964L201.142 226.706H196.208L196.592 228.964H201.588Z" fill="#7B70EE"/>
<path d="M249.152 228.964L248.187 226.706H242.987L243.891 228.964H249.152Z" fill="#7B70EE"/>
<path d="M218.556 228.964L217.927 226.706H213.391L213.959 228.964H218.556Z" fill="#7B70EE"/>
<path d="M212.9 228.964L212.332 226.706H208.169L208.676 228.964H212.9Z" fill="#7B70EE"/>
<path d="M215.505 239.318L214.895 236.893H210.458L211.001 239.318H215.505Z" fill="#7B70EE"/>
<path d="M253.578 239.318L252.541 236.893H247.066L248.037 239.318H253.578Z" fill="#7B70EE"/>
<path d="M240.282 239.318L239.408 236.893H233.959L234.7 239.318H240.282Z" fill="#7B70EE"/>
<path d="M266.872 239.318L265.703 236.893H260.25L261.353 239.318H266.872Z" fill="#7B70EE"/>
<path d="M260.226 239.318L259.123 236.893H253.658L254.694 239.318H260.226Z" fill="#7B70EE"/>
<path d="M246.93 239.318L245.959 236.893H240.5L241.372 239.318H246.93Z" fill="#7B70EE"/>
<path d="M209.949 239.318L209.406 236.893H204.2L204.679 239.318H209.949Z" fill="#7B70EE"/>
<path d="M255.519 228.964L254.493 226.706H249.303L250.268 228.964H255.519Z" fill="#7B70EE"/>
<path d="M264.687 232.415H269.608L268.237 229.99H263.519L264.687 232.415Z" fill="#7B70EE"/>
<path d="M226.982 239.318L226.273 236.893H221.831L222.507 239.318H226.982Z" fill="#7B70EE"/>
<path d="M261.886 228.964L260.797 226.706H255.62L256.646 228.964H261.886Z" fill="#7B70EE"/>
<path d="M233.627 239.318L232.886 236.893H227.342L228.051 239.318H233.627Z" fill="#7B70EE"/>
<path d="M267.658 228.964L266.381 226.706H261.937L263.025 228.964H267.658Z" fill="#7B70EE"/>
<path d="M223.956 228.964L223.297 226.706H218.992L219.622 228.964H223.956Z" fill="#7B70EE"/>
<path d="M190.827 239.318L190.545 236.893H185.224L185.323 239.318H190.827Z" fill="#7B70EE"/>
<path d="M111.883 233.441L111.342 234.707L110.846 235.867H116.294L117.265 233.441H111.883Z" fill="#7B70EE"/>
<path d="M196.728 235.867L196.315 233.441H191.176L191.459 235.867H196.728Z" fill="#7B70EE"/>
<path d="M109.729 235.867L110.767 233.441H105.394L104.818 234.709L104.292 235.867H109.729Z" fill="#7B70EE"/>
<path d="M155.094 229.99L154.55 232.415H159.633L160.112 229.99H155.094Z" fill="#7B70EE"/>
<path d="M161.159 229.99L160.679 232.415H165.768L166.181 229.99H161.159Z" fill="#7B70EE"/>
<path d="M131.117 233.441L130.376 235.867H135.906L136.615 233.441H131.117Z" fill="#7B70EE"/>
<path d="M118.371 233.441L117.399 235.867H122.818L123.691 233.441H118.371Z" fill="#7B70EE"/>
<path d="M137.684 233.441L136.976 235.867H141.403L142.079 233.441H137.684Z" fill="#7B70EE"/>
<path d="M185.086 233.441L185.184 235.867H190.425L190.142 233.441H185.086Z" fill="#7B70EE"/>
<path d="M124.783 233.441L123.91 235.867H129.303L130.044 233.441H124.783Z" fill="#7B70EE"/>
<path d="M189.622 228.964L189.359 226.706H184.814L184.905 228.964H189.622Z" fill="#7B70EE"/>
<path d="M203.633 239.318L203.154 236.893H197.944L198.356 239.318H203.633Z" fill="#7B70EE"/>
<path d="M179.162 226.706L179.07 228.964H183.878L183.787 226.706H179.162Z" fill="#7B70EE"/>
<path d="M179.029 229.99L178.932 232.415H184.016L183.919 229.99H179.029Z" fill="#7B70EE"/>
<path d="M190.024 232.415L189.741 229.99H184.946L185.044 232.415H190.024Z" fill="#7B70EE"/>
<path d="M195.551 228.964L195.167 226.706H190.392L190.656 228.964H195.551Z" fill="#7B70EE"/>
<path d="M178.89 233.441L178.792 235.867H184.156L184.058 233.441H178.89Z" fill="#7B70EE"/>
<path d="M178.751 236.893L178.653 239.318H184.295L184.197 236.893H178.751Z" fill="#7B70EE"/>
<path d="M178.044 228.964L178.135 226.706H173.589L173.327 228.964H178.044Z" fill="#7B70EE"/>
<path d="M167.398 228.964H172.293L172.556 226.706H167.783L167.398 228.964Z" fill="#7B70EE"/>
<path d="M202.951 235.867L202.472 233.441H197.355L197.769 235.867H202.951Z" fill="#7B70EE"/>
<path d="M154.319 233.441L153.775 235.867H158.951L159.43 233.441H154.319Z" fill="#7B70EE"/>
<path d="M88.8585 240.344L87.6592 242.465H93.4216L94.4433 240.344H88.8585Z" fill="#7B70EE"/>
<path d="M225.973 235.867L225.265 233.441H220.869L221.546 235.867H225.973Z" fill="#7B70EE"/>
<path d="M222.793 240.344L223.384 242.465H227.902L227.282 240.344H222.793Z" fill="#7B70EE"/>
<path d="M214.637 235.867L214.027 233.441H209.682L210.226 235.867H214.637Z" fill="#7B70EE"/>
<path d="M177.626 239.318L177.724 236.893H172.404L172.122 239.318H177.626Z" fill="#7B70EE"/>
<path d="M241.741 240.344L242.505 242.465H248.19L247.342 240.344H241.741Z" fill="#7B70EE"/>
<path d="M258.657 235.867L257.555 233.441H252.182L253.219 235.867H258.657Z" fill="#7B70EE"/>
<path d="M248.448 240.344L249.296 242.465H254.924L254.017 240.344H248.448Z" fill="#7B70EE"/>
<path d="M166.046 236.893L165.633 239.318H171.089L171.371 236.893H166.046Z" fill="#7B70EE"/>
<path d="M90.8085 236.893L89.4384 239.318H94.9373L96.1054 236.893H90.8085Z" fill="#7B70EE"/>
<path d="M191.979 240.344L192.226 242.465H197.852L197.491 240.344H191.979Z" fill="#7B70EE"/>
<path d="M108.932 240.344L108.025 242.465H113.652L114.501 240.344H108.932Z" fill="#7B70EE"/>
<path d="M177.585 240.344H172.003L171.756 242.465H177.499L177.585 240.344Z" fill="#7B70EE"/>
<path d="M252.102 235.867L251.067 233.441H245.684L246.654 235.867H252.102Z" fill="#7B70EE"/>
<path d="M95.5828 240.344L94.5603 242.465H100.165L101.13 240.344H95.5828Z" fill="#7B70EE"/>
<path d="M203.518 233.441L203.997 235.867H209.174L208.63 233.441H203.518Z" fill="#7B70EE"/>
<path d="M228.351 240.344L228.971 242.465H234.59L233.94 240.344H228.351Z" fill="#7B70EE"/>
<path d="M204.882 240.344L205.3 242.465H210.656L210.181 240.344H204.882Z" fill="#7B70EE"/>
<path d="M232.572 235.867L231.831 233.441H226.334L227.042 235.867H232.572Z" fill="#7B70EE"/>
<path d="M239.04 235.867L238.166 233.441H232.904L233.646 235.867H239.04Z" fill="#7B70EE"/>
<path d="M198.532 240.344L198.893 242.465H204.254L203.836 240.344H198.532Z" fill="#7B70EE"/>
<path d="M235.014 240.344L235.664 242.465H241.414L240.65 240.344H235.014Z" fill="#7B70EE"/>
<path d="M94.7109 229.99L93.34 232.415H98.2616L99.4297 229.99H94.7109Z" fill="#7B70EE"/>
<path d="M261.819 240.344L262.783 242.465H268.388L267.365 240.344H261.819Z" fill="#7B70EE"/>
<path d="M96.5666 226.706L95.2908 228.964H99.9237L101.011 226.706H96.5666Z" fill="#7B70EE"/>
<path d="M245.549 235.867L244.578 233.441H239.257L240.13 235.867H245.549Z" fill="#7B70EE"/>
<path d="M164.056 242.465L164.417 240.344H115.607L114.757 242.465H164.056Z" fill="#7B70EE"/>
<path d="M211.233 240.344L211.708 242.465H216.297L215.763 240.344H211.233Z" fill="#7B70EE"/>
<path d="M172.925 232.415H177.905L178.002 229.99H173.207L172.925 232.415Z" fill="#7B70EE"/>
<path d="M272.139 236.893H266.842L269.527 242.465H275.29L272.139 236.893Z" fill="#7B70EE"/>
<path d="M266.349 235.867H271.56L270.188 233.441H265.181L266.349 235.867Z" fill="#7B70EE"/>
<path d="M265.21 235.867L264.042 233.441H258.682L259.784 235.867H265.21Z" fill="#7B70EE"/>
<path d="M170.723 242.465L170.969 240.344H165.458L165.097 242.465H170.723Z" fill="#7B70EE"/>
<path d="M178.613 240.344L178.527 242.465H191.194L190.945 240.344H178.613Z" fill="#7B70EE"/>
<path d="M255.133 240.344L256.04 242.465H261.657L260.692 240.344H255.133Z" fill="#7B70EE"/>
<path d="M220.48 235.867L219.803 233.441H215.085L215.696 235.867H220.48Z" fill="#7B70EE"/>
<path d="M216.822 240.344L217.356 242.465H222.319L221.727 240.344H216.822Z" fill="#7B70EE"/>
<path d="M92.7593 233.441L91.3892 235.867H96.5995L97.7676 233.441H92.7593Z" fill="#7B70EE"/>
<path d="M106.302 228.964L107.329 226.706H102.151L101.063 228.964H106.302Z" fill="#7B70EE"/>
<path d="M102.257 240.344L101.292 242.465H106.908L107.815 240.344H102.257Z" fill="#7B70EE"/>
<path d="M177.765 235.867L177.864 233.441H172.806L172.524 235.867H177.765Z" fill="#7B70EE"/>
<path d="M196.903 236.893H191.578L191.86 239.318H197.316L196.903 236.893Z" fill="#7B70EE"/>
<path d="M213.629 260.539H149.319C149.046 260.539 148.796 260.412 148.633 260.193C148.471 259.973 148.425 259.697 148.505 259.435L152.593 246.149C152.704 245.789 153.032 245.548 153.408 245.548H209.542C209.918 245.548 210.245 245.789 210.357 246.149L214.445 259.435C214.526 259.697 214.479 259.973 214.316 260.193C214.153 260.412 213.903 260.539 213.629 260.539ZM153.407 246.308C153.366 246.308 153.331 246.334 153.319 246.373L149.231 259.66C149.219 259.696 149.232 259.725 149.244 259.742C149.257 259.758 149.28 259.779 149.318 259.779H213.629C213.668 259.779 213.691 259.758 213.704 259.742C213.716 259.725 213.729 259.696 213.718 259.66L209.629 246.373C209.618 246.335 209.581 246.308 209.541 246.308H153.407Z" fill="#7B70EE"/>
<path d="M212.705 125.203L142.847 136.221L210.015 169.826L279.584 159.48L212.705 125.203Z" fill="#1C1C84"/>
<path d="M142.847 136.221V137.819L210.065 172.946L279.584 161.01V159.48L210.015 169.826L142.847 136.221Z" fill="#2525AD"/>
<path d="M168.83 174.029L167.759 181.13C167.759 181.13 196.445 204.161 236.893 192.837L237.512 187.288C201.76 193.27 179.254 181.681 168.83 174.029Z" fill="#2525AD"/>
<path d="M253.997 211.424C250.254 208.455 247.602 204.076 246.339 199.468C246.245 199.126 245.789 199.25 245.736 199.543C245.651 199.429 245.48 199.413 245.343 199.485C245.278 199.248 244.891 199.139 244.743 199.426C242.176 204.402 244.159 210.023 245.877 214.945C246.011 215.332 246.44 215.124 246.304 214.736C244.96 210.883 243.521 206.569 244.339 202.51C243.883 207.642 245.593 212.898 248.726 216.97C248.952 217.264 249.303 216.911 249.076 216.615C246.232 212.918 244.763 208.226 244.914 203.566C245.002 205.402 245.286 207.232 245.873 208.963C246.773 211.615 248.277 214.147 249.783 216.494C250.004 216.84 250.353 216.484 250.132 216.139C248.685 213.882 247.437 211.458 246.534 208.924C246.147 207.838 245.893 206.7 245.73 205.547C246.595 209.279 248.398 212.788 250.989 215.637C251.262 215.937 251.623 215.671 251.347 215.367C248.508 212.245 246.801 208.249 246.096 204.125C247.138 207.987 249.061 211.64 251.6 214.777C251.856 215.094 252.124 214.75 251.865 214.429C249.386 211.367 247.748 207.786 246.724 204.018C248.103 207.905 249.892 211.654 253.052 214.418C253.362 214.688 253.7 214.375 253.391 214.104C251.221 212.206 249.79 209.642 248.624 207.07C249.889 209.318 251.411 211.42 253.177 213.319C253.456 213.62 253.692 213.142 253.416 212.845C251.862 211.174 250.67 209.324 249.516 207.367C250.705 208.96 252.087 210.411 253.652 211.652C253.972 211.907 254.32 211.68 253.997 211.424Z" fill="#F0C64B"/>
<path d="M247.418 157.646C245.958 155.902 243.988 154.756 241.97 153.777C237.957 151.832 233.499 150.986 229.148 150.163C223 149 216.71 147.922 211.597 144.048C211.398 143.897 211.207 143.973 211.092 144.126C211.082 144.135 211.075 144.147 211.067 144.157C211.064 144.163 211.059 144.167 211.056 144.172C210.933 144.324 210.899 144.542 211.082 144.716C214.829 148.298 219.838 150.071 224.769 151.319C229.752 152.58 234.838 153.444 239.607 155.424C239.755 155.486 239.903 155.547 240.051 155.608C240.08 155.62 240.237 155.693 240.239 155.692C240.483 155.81 240.725 155.932 240.968 156.053C241.861 156.495 242.73 156.954 243.547 157.529C244.527 158.218 245.434 159.062 246.064 160.088C246.752 161.21 246.991 162.468 246.966 163.772C246.94 165.13 246.688 166.48 246.468 167.816C246.24 169.2 246.034 170.588 245.821 171.974C245.381 174.841 244.971 177.709 244.662 180.592C243.981 186.939 243.795 193.413 244.936 199.721C245.021 200.188 245.806 200.086 245.771 199.608C245.327 193.622 245.815 187.62 246.655 181.689C247.074 178.738 247.58 175.798 248.096 172.862C248.58 170.106 249.22 167.328 249.446 164.536C249.651 162.003 249.065 159.614 247.418 157.646Z" fill="#F0C64B"/>
<path d="M244.619 200.172C244.692 200.136 244.765 200.104 244.839 200.073C244.884 200.056 244.882 200.056 244.832 200.075C244.854 200.067 244.875 200.059 244.897 200.052C244.93 200.041 244.963 200.03 244.996 200.02C245.155 199.971 245.317 199.936 245.482 199.912C245.522 199.907 245.562 199.9 245.602 199.897C245.491 199.903 245.62 199.897 245.642 199.896C245.722 199.891 245.803 199.89 245.883 199.891C245.963 199.893 246.043 199.897 246.123 199.905C246.162 199.909 246.202 199.913 246.242 199.918C246.265 199.922 246.287 199.924 246.31 199.928C246.255 199.918 246.251 199.918 246.299 199.927C246.416 199.949 246.519 199.955 246.628 199.896C246.718 199.849 246.806 199.751 246.833 199.65C246.887 199.45 246.79 199.16 246.556 199.116C245.757 198.967 244.951 199.062 244.218 199.421C244.018 199.519 243.929 199.803 244.044 199.997C244.164 200.201 244.406 200.277 244.619 200.172Z" fill="#D8A32B"/>
<path d="M244.534 199.342C244.607 199.306 244.68 199.274 244.754 199.243C244.799 199.226 244.797 199.226 244.747 199.245C244.769 199.237 244.79 199.23 244.812 199.222C244.845 199.211 244.878 199.2 244.911 199.19C245.07 199.141 245.232 199.105 245.397 199.083C245.437 199.077 245.477 199.07 245.517 199.067C245.405 199.073 245.535 199.067 245.557 199.066C245.637 199.062 245.718 199.06 245.798 199.062C245.878 199.063 245.958 199.067 246.038 199.076C246.078 199.08 246.117 199.084 246.157 199.089C246.18 199.093 246.202 199.096 246.225 199.099C246.17 199.089 246.165 199.088 246.214 199.098C246.331 199.12 246.434 199.125 246.543 199.067C246.633 199.019 246.722 198.921 246.748 198.821C246.802 198.621 246.705 198.33 246.471 198.287C245.671 198.138 244.866 198.233 244.133 198.592C243.934 198.69 243.844 198.975 243.959 199.168C244.079 199.371 244.32 199.447 244.534 199.342Z" fill="#D8A32B"/>
<path d="M239.613 170.576L239.96 167.813L210.065 172.945L172.432 153.279L171.626 157.926L209.314 176.899L239.613 170.576Z" fill="#0C0C5B"/>
<path d="M209.314 176.899L171.625 157.926L168.83 174.029C179.254 181.681 201.76 193.27 237.512 187.289L239.612 170.577L209.314 176.899Z" fill="#1C1C84"/>
<path d="M163.626 198.746C165.294 203.239 161.71 208.713 155.621 210.974C149.532 213.234 146.056 210.384 143.621 206.256C140.058 200.219 143.492 196.963 149.581 194.702C155.671 192.443 161.958 194.253 163.626 198.746Z" fill="#FFF6DC"/>
<path d="M102.822 149.261C102.822 149.261 117.933 164.822 130.315 192.751C130.315 192.751 136.188 207.912 140.041 211.703C140.041 211.703 136.923 208.189 141.684 202.579C145.182 198.459 150.283 195.934 155.683 195.743C158.701 195.636 161.853 196.268 163.647 198.804C163.647 198.804 143.495 175.065 130.328 154.582C125.067 146.399 122.577 139.638 121.484 134.469C121.484 134.469 120.491 133.302 118.515 132.326C111.245 128.736 102.682 133.568 101.413 141.575C101.295 142.323 101.221 143.119 101.201 143.965C101.201 143.965 101.097 147.514 102.822 149.261Z" fill="white"/>
<path d="M140.041 211.703C140.041 211.703 146.655 219.683 161.633 210.108C161.633 210.108 170.904 203.923 166.276 193.15C166.276 193.15 156.662 185.984 149.081 176.899C141.5 167.814 132.123 155.446 124.343 139.087L122.359 137.887C122.359 137.887 123.789 145.644 133.049 158.716C142.309 171.789 159.391 193.675 159.391 193.675L162.003 196.822C163.503 198.629 164.018 201.111 163.19 203.308C162.01 206.437 158.548 210.143 148.882 210.705L142.847 201.335C142.847 201.335 136.986 206.189 140.041 211.703Z" fill="#F4E7BD"/>
<path d="M154.671 182.974C154.671 182.974 137.311 164.873 125.142 136.22C125.142 136.22 122.947 132.732 121.551 131.122C121.551 131.122 132.13 163.82 154.671 182.974Z" fill="white"/>
<path d="M122.744 177.721C126.396 171.134 134.288 166.778 141.801 167.155C144.474 167.288 144.467 163.963 141.801 163.83C132.891 163.383 124.057 167.83 119.737 175.624C119.737 175.624 121.445 180.063 122.744 177.721Z" fill="#F0C64B"/>
<path d="M95.8497 189.83H61.7795C57.2627 189.83 53.5673 186.135 53.5673 181.618V163.875C53.5673 159.359 57.2627 155.663 61.7795 155.663H95.8497C100.366 155.663 104.062 159.359 104.062 163.875V181.618C104.062 186.135 100.366 189.83 95.8497 189.83Z" fill="#2525AD"/>
<path d="M73.3951 172.747V166.49L78.815 169.618L84.234 172.747L78.815 175.876L73.3951 179.004V172.747Z" fill="#D5CBFB"/>
<path d="M68.9498 114.476C68.9498 104.044 60.4927 95.5876 50.0612 95.5876C39.6296 95.5876 31.1725 104.044 31.1725 114.476C31.1725 122.036 35.6161 128.556 42.0332 131.574V137.598H58.0899V131.574C64.5062 128.556 68.9498 122.036 68.9498 114.476Z" fill="white"/>
<path d="M58.6067 140.71H41.5156C40.6589 140.71 39.9587 140.01 39.9587 139.154C39.9587 138.297 40.6589 137.597 41.5156 137.597H58.6075C59.4634 137.597 60.1644 138.297 60.1644 139.154C60.1636 140.01 59.4634 140.71 58.6067 140.71Z" fill="#F0C64B"/>
<path d="M50.0611 149.545C46.6123 149.545 43.8165 146.749 43.8165 143.301V142.268H56.3066V143.301C56.3057 146.749 53.51 149.545 50.0611 149.545Z" fill="#F0C64B"/>
<path d="M58.6067 143.824H41.5156C40.6589 143.824 39.9587 143.123 39.9587 142.267C39.9587 141.411 40.6589 140.71 41.5156 140.71H58.6075C59.4634 140.71 60.1644 141.411 60.1644 142.267C60.1636 143.124 59.4634 143.824 58.6067 143.824Z" fill="#D8A32B"/>
<path d="M51.7789 137.598H50.8935V111.358C50.8935 110.899 50.5198 110.525 50.0612 110.525C49.6017 110.525 49.228 110.899 49.228 111.358V137.598H48.3427V111.358C48.3427 110.41 49.1135 109.64 50.0612 109.64C51.0088 109.64 51.7789 110.41 51.7789 111.358V137.598Z" fill="#F0C64B"/>
<path d="M20.3724 108.036L19.8539 110.739L27.7489 112.252C27.855 111.33 28.0165 110.425 28.2303 109.54L20.3724 108.036Z" fill="#7B70EE"/>
<path d="M26.6262 95.5876L24.9615 97.7833L31.2583 102.55C31.7624 101.78 32.3128 101.042 32.9053 100.342L26.6262 95.5876Z" fill="#7B70EE"/>
<path d="M37.6637 87.1797L35.2046 88.4176L38.7443 95.4346C39.5346 94.9725 40.3534 94.5551 41.2009 94.1907L37.6637 87.1797Z" fill="#7B70EE"/>
<path d="M80.2684 110.739L79.75 108.036L71.8912 109.54C72.105 110.424 72.2674 111.33 72.3726 112.252L80.2684 110.739Z" fill="#7B70EE"/>
<path d="M75.16 97.7833L73.4953 95.5876L67.2162 100.342C67.8087 101.043 68.3582 101.78 68.8632 102.55L75.16 97.7833Z" fill="#7B70EE"/>
<path d="M64.9178 88.4176L62.4586 87.1797L58.9206 94.1916C59.7681 94.556 60.5869 94.9734 61.3772 95.4354L64.9178 88.4176Z" fill="#7B70EE"/>
<path d="M51.4683 92.4217L51.4002 84.4336L48.6456 84.4588L48.7146 92.4166C49.1607 92.3906 49.6084 92.3729 50.0603 92.3729C50.5342 92.3737 51.0029 92.3931 51.4683 92.4217Z" fill="#7B70EE"/>
<path d="M329.074 258.734H249.249V274.472H329.074V258.734Z" fill="#F0C64B"/>
<path d="M256.956 258.734H253.741V274.472H256.956V258.734Z" fill="#D8A32B"/>
<path d="M261.783 258.734H258.567V274.472H261.783V258.734Z" fill="#D8A32B"/>
<path d="M319.756 258.734H316.54V274.472H319.756V258.734Z" fill="#D8A32B"/>
<path d="M324.581 258.734H321.365V274.472H324.581V258.734Z" fill="#D8A32B"/>
<path d="M336.754 249.964V247.543C336.754 244.102 333.954 241.303 330.514 241.303H259.369V256.205H330.514C333.954 256.205 336.754 253.405 336.754 249.964Z" fill="white"/>
<path d="M330.513 238.681H258.903V239.992V241.303H330.513C333.954 241.303 336.754 244.103 336.754 247.543V249.964C336.754 253.405 333.954 256.205 330.513 256.205H258.903V257.516V258.827H330.513C335.4 258.827 339.376 254.851 339.376 249.964V247.543C339.376 242.656 335.4 238.681 330.513 238.681Z" fill="#2525AD"/>
<path d="M331.907 244.639H259.368V245.831H331.907V244.639Z" fill="#F5F5FF"/>
<path d="M331.907 248.231H259.368V249.423H331.907V248.231Z" fill="#F5F5FF"/>
<path d="M331.907 251.823H259.368V253.015H331.907V251.823Z" fill="#F5F5FF"/>
<path d="M253.27 230.793V228.613C253.27 225.514 255.791 222.994 258.889 222.994H322.951V236.413H258.889C255.792 236.413 253.27 233.892 253.27 230.793Z" fill="white"/>
<path d="M258.889 220.633H323.37V221.813V222.994H258.889C255.791 222.994 253.27 225.514 253.27 228.613V230.794C253.27 233.892 255.791 236.413 258.889 236.413H323.37V237.593V238.774H258.889C254.489 238.774 250.909 235.194 250.909 230.794V228.613C250.909 224.213 254.489 220.633 258.889 220.633Z" fill="#F0C64B"/>
<path d="M257.634 227.072H322.951V225.998H257.634V227.072Z" fill="#F5F5FF"/>
<path d="M257.634 230.305H322.951V229.232H257.634V230.305Z" fill="#F5F5FF"/>
<path d="M257.634 233.54H322.951V232.466H257.634V233.54Z" fill="#F5F5FF"/>
<path d="M124.555 53.3C127.57 53.3 130.014 55.6699 130.014 58.5926V59.398C131.112 62.4874 131.781 66.5083 131.781 70.9173C131.781 75.3262 131.111 79.3463 130.014 82.4366V83.2419C130.014 86.1647 127.57 88.5345 124.555 88.5345C120.564 88.5345 117.329 80.6474 117.329 70.9173C117.328 61.1871 120.564 53.3 124.555 53.3Z" fill="#F0C64B"/>
<path d="M119.784 71.141C119.784 77.0926 120.245 81.9181 120.813 81.9181C121.382 81.9181 121.842 77.0934 121.842 71.141C121.842 65.1895 121.381 60.364 120.813 60.364C120.245 60.3649 119.784 65.1895 119.784 71.141Z" fill="#D8A32B"/>
<path d="M137.658 62.9342V63.6402V78.6427V79.3488C137.286 83.4102 133.55 87.1745 128.543 88.5344V78.6427V63.6402V53.7485C133.55 55.1085 137.286 58.8728 137.658 62.9342Z" fill="#7B70EE"/>
<path d="M128.543 90.4195C129.358 90.4195 130.025 89.7732 130.025 88.983V53.2999C130.025 52.5097 129.358 51.8625 128.543 51.8625C127.727 51.8625 127.061 52.5089 127.061 53.2999V88.983C127.06 89.7732 127.727 90.4195 128.543 90.4195Z" fill="#2525AD"/>
<path d="M96.1939 53.3C93.1784 53.3 90.7345 55.6699 90.7345 58.5926V59.398C89.6362 62.4874 88.968 66.5083 88.968 70.9173C88.968 75.3262 89.637 79.3463 90.7345 82.4366V83.2419C90.7345 86.1647 93.1784 88.5345 96.1939 88.5345C100.185 88.5345 103.42 80.6474 103.42 70.9173C103.42 61.1871 100.185 53.3 96.1939 53.3Z" fill="#F0C64B"/>
<path d="M100.964 71.141C100.964 77.0926 100.503 81.9181 99.9347 81.9181C99.3667 81.9181 98.9055 77.0934 98.9055 71.141C98.9055 65.1895 99.3667 60.364 99.9347 60.364C100.503 60.3649 100.964 65.1895 100.964 71.141Z" fill="#D8A32B"/>
<path d="M83.0894 62.9342V63.6402V78.6427V79.3488C83.4614 83.4102 87.1972 87.1745 92.2047 88.5344V78.6427V63.6402V53.7485C87.1972 55.1085 83.4614 58.8728 83.0894 62.9342Z" fill="#7B70EE"/>
<path d="M92.2056 90.4195C91.3901 90.4195 90.7235 89.7732 90.7235 88.983V53.2999C90.7235 52.5097 91.3901 51.8625 92.2056 51.8625C93.0211 51.8625 93.6876 52.5089 93.6876 53.2999V88.983C93.6876 89.7732 93.0202 90.4195 92.2056 90.4195Z" fill="#2525AD"/>
<path d="M128.683 31.5843C125.721 29.1395 121.837 27.5919 118.153 26.6881C114.371 25.7598 110.421 25.5225 106.554 25.9711C105.387 26.1065 104.224 26.2892 103.075 26.5315C102.288 26.6973 101.423 26.8269 100.694 27.1728C99.9313 27.5347 99.184 27.9336 98.4299 28.314C96.3882 29.3432 94.3457 30.3724 92.304 31.4016C91.491 31.8115 91.587 33.0006 92.304 33.4349C94.1917 34.5794 96.3537 34.7258 98.4914 34.385C99.9945 34.1451 101.367 33.5872 102.794 33.0932C105.356 32.2053 108.125 31.7711 110.832 31.7585C113.244 31.7475 115.692 32.1086 117.921 33.062C121.219 34.4826 125.165 35.4277 128.444 33.4349C129.04 33.0713 129.285 32.0816 128.683 31.5843Z" fill="#7B70EE"/>
<path d="M110.884 24.6616L110.889 24.6355C110.716 24.6355 110.546 24.6456 110.374 24.6481C110.202 24.6456 110.032 24.6355 109.859 24.6355L109.864 24.6616C92.8603 25.2036 79.24 39.1482 79.24 56.2824V75.4851C79.24 77.6176 80.9686 79.3471 83.102 79.3471V60.4153L83.0187 59.923C81.7176 52.2454 83.3815 44.2548 88.0658 38.0348C90.2539 35.1298 93.218 32.3938 97.2307 30.417C97.2787 30.3935 97.3258 30.3707 97.3738 30.3472C105.55 26.3615 115.199 26.3615 123.375 30.3472C123.423 30.3707 123.47 30.3935 123.518 30.417C127.555 32.4056 130.53 35.1626 132.721 38.0862C137.379 44.3011 139.027 52.2715 137.729 59.928L137.646 60.4161V79.3479C139.779 79.3479 141.508 77.6193 141.508 75.486V56.2832C141.508 39.1482 127.887 25.2036 110.884 24.6616Z" fill="#2525AD"/>
<path d="M344.362 93.4888H294.147V166.105H344.362V93.4888Z" fill="#D5CBFB"/>
<path d="M338.942 104.14H299.567V105.747H338.942V104.14Z" fill="#7B70EE"/>
<path d="M338.942 111.518H299.567V113.125H338.942V111.518Z" fill="#7B70EE"/>
<path d="M338.942 118.896H299.567V120.504H338.942V118.896Z" fill="#7B70EE"/>
<path d="M338.942 126.274H299.567V127.882H338.942V126.274Z" fill="#7B70EE"/>
<path d="M338.942 133.652H299.567V135.26H338.942V133.652Z" fill="#7B70EE"/>
<path d="M338.942 141.031H299.567V142.639H338.942V141.031Z" fill="#7B70EE"/>
<path d="M338.943 158.954H299.568V159.397H338.943V158.954Z" fill="white"/>
<path d="M304.947 151.981C306.959 152.319 309.001 152.42 311.034 152.243C312.913 152.08 314.907 151.764 316.66 151.041C317.907 150.527 319.266 149.119 318.391 147.695C317.62 146.44 315.685 146.312 314.403 146.617C312.909 146.973 311.579 147.951 310.67 149.173C309.76 150.396 309.127 152.159 310.204 153.482C311.199 154.704 313.02 154.949 314.487 154.745C315.311 154.631 316.113 154.358 316.835 153.941C317.171 153.745 317.484 153.515 317.782 153.267C318.173 152.943 318.583 152.514 319.11 152.441C319.744 152.353 319.89 152.832 320.293 153.177C320.573 153.417 320.933 153.498 321.294 153.462C321.739 153.416 322.144 153.224 322.557 153.065C323.076 152.864 323.589 152.789 324.146 152.802C326.541 152.859 328.955 153.177 331.343 153.372C331.769 153.406 331.767 153.008 331.343 152.974C329.565 152.829 327.787 152.419 326.01 152.275C325.198 152.21 324.364 152.085 323.55 152.151C322.784 152.215 322.169 152.612 321.436 152.769C320.612 152.945 320.498 152.117 319.838 151.863C319.253 151.638 318.608 151.827 318.107 152.162C317.496 152.571 316.999 153.102 316.346 153.455C315.614 153.85 314.787 154.087 313.956 154.138C312.61 154.219 310.605 153.809 310.322 152.215C310.062 150.762 311.268 149.262 312.319 148.404C313.398 147.523 314.854 146.94 316.26 147.197C316.929 147.32 317.803 147.635 317.967 148.386C318.158 149.262 317.383 149.968 316.681 150.313C315.86 150.715 314.912 150.92 314.025 151.118C313.04 151.338 312.043 151.493 311.037 151.58C309.065 151.751 307.078 151.847 305.126 151.518C304.706 151.447 304.526 151.91 304.947 151.981Z" fill="#7B70EE"/>
<path d="M361.147 137.567L352.32 132.778L354.914 127.995C355.476 126.96 356.77 126.576 357.805 127.138L362.884 129.894C363.919 130.455 364.303 131.749 363.742 132.785L361.147 137.567Z" fill="#D5CBFB"/>
<path d="M360.524 138.678L351.697 133.889L326.2 180.877L335.027 185.667L360.524 138.678Z" fill="#2525AD"/>
<path d="M357.682 137.142L354.53 135.431L329.032 182.419L332.185 184.13L357.682 137.142Z" fill="#1C1C84"/>
<path d="M362.719 137.137L351.79 131.207L350.644 133.319L361.573 139.249L362.719 137.137Z" fill="#F0C64B"/>
<path d="M335.034 185.688L326.207 180.899L325.311 188.907L328.808 190.805L335.034 185.688Z" fill="#D5CBFB"/>
<path d="M328.808 190.805L325.311 188.907L324.724 194.16L328.808 190.805Z" fill="#2525AD"/>
<path d="M45.4501 55.9739L54.4829 65.0064" stroke="#7B70EE" stroke-width="2.1457" stroke-miterlimit="10"/>
<path d="M54.6646 55.9739L45.6318 65.0064" stroke="#7B70EE" stroke-width="2.1457" stroke-miterlimit="10"/>
<path d="M349.325 191.453L358.358 200.486" stroke="#7B70EE" stroke-width="2.1457" stroke-miterlimit="10"/>
<path d="M358.539 191.453L349.506 200.486" stroke="#7B70EE" stroke-width="2.1457" stroke-miterlimit="10"/>
<path d="M19.9625 159.8L27.9618 167.798" stroke="#2525AD" stroke-width="1.9001" stroke-miterlimit="10"/>
<path d="M28.1218 159.8L20.1233 167.798" stroke="#2525AD" stroke-width="1.9001" stroke-miterlimit="10"/>
<path d="M15.7243 93.4889C15.7243 97.0992 12.7972 100.026 9.18677 100.026C5.57635 100.026 2.64929 97.0992 2.64929 93.4889C2.64929 89.8786 5.57635 86.9517 9.18677 86.9517C12.7972 86.9508 15.7243 89.8778 15.7243 93.4889Z" stroke="#7B70EE" stroke-width="2.1457" stroke-miterlimit="10"/>
<path d="M271.56 88.4554C275.17 88.4554 278.097 85.5285 278.097 81.9181C278.097 78.3077 275.17 75.3809 271.56 75.3809C267.949 75.3809 265.022 78.3077 265.022 81.9181C265.022 85.5285 267.949 88.4554 271.56 88.4554Z" stroke="#7B70EE" stroke-width="2.1457" stroke-miterlimit="10"/>
<path d="M301.384 72.8024C301.384 73.7197 300.64 74.4636 299.723 74.4636C298.805 74.4636 298.061 73.7197 298.061 72.8024C298.061 71.8851 298.805 71.1411 299.723 71.1411C300.64 71.1411 301.384 71.8851 301.384 72.8024Z" stroke="#2525AD" stroke-width="1.9001" stroke-miterlimit="10"/>
<path d="M141.189 17.4134C141.189 18.3307 140.445 19.0747 139.527 19.0747C138.61 19.0747 137.866 18.3307 137.866 17.4134C137.866 16.4961 138.61 15.7522 139.527 15.7522C140.445 15.7522 141.189 16.4961 141.189 17.4134Z" stroke="#2525AD" stroke-width="1.9001" stroke-miterlimit="10"/>
<path d="M35.1852 228.223V232.152C29.9067 232.449 25.7004 236.825 25.7004 242.176V245.519C25.7004 251.003 30.1154 255.467 35.5757 255.563C37.5585 266.32 46.9792 274.472 58.3104 274.472C71.0824 274.472 81.4357 264.119 81.4357 251.348V228.223H35.1852ZM28.9498 245.518V242.176C28.9498 238.616 31.6993 235.691 35.1852 235.4V251.347C35.1852 251.665 35.1961 251.98 35.2087 252.295C31.7119 252.016 28.9498 249.087 28.9498 245.518Z" fill="#2525AD"/>
<path d="M69.916 201.899C66.9738 200.381 63.1084 201.097 60.7435 203.413C60.3193 200.039 57.112 197.489 53.749 196.986C50.3852 196.482 46.9725 197.661 44.0211 199.352C41.1268 201.01 38.4245 203.31 37.2117 206.417C35.999 209.524 36.6782 213.529 39.426 215.419C40.5419 216.187 41.9642 216.403 43.2998 216.179C43.4757 217.236 43.894 218.244 44.5816 219.08C46.8732 221.866 51.6046 222.141 54.2043 219.64C56.177 221.386 59.2051 221.827 61.5935 220.716C62.1128 220.474 62.5933 220.159 63.0301 219.791C62.8542 222.106 61.9747 224.372 60.4935 226.163C63.3625 225.165 65.8158 223.026 67.1943 220.319C68.0981 218.544 68.5232 216.538 68.4668 214.549C70.7004 214.119 72.7496 212.485 73.4768 210.298C74.5229 207.156 72.859 203.415 69.916 201.899Z" fill="#D5CBFB"/>
<path d="M173.701 63.0864L173.697 63.0856C173.577 63.0755 173.453 63.0696 173.327 63.0696C170.866 63.0696 168.864 65.0717 168.864 67.5324C168.864 69.9931 170.866 71.9952 173.327 71.9952C173.453 71.9952 173.576 71.9901 173.691 71.98C175.991 71.7907 177.79 69.8374 177.79 67.5324C177.79 65.2282 175.994 63.2749 173.701 63.0864Z" fill="#2525AD"/>
<path d="M189.341 67.5333C189.341 66.7625 189.041 66.0379 188.495 65.4917C187.949 64.9464 187.224 64.6459 186.453 64.6459H184.8L184.63 64.0871C184.409 63.3584 184.114 62.6489 183.756 61.9782L183.481 61.4632L184.651 60.2934C185.777 59.1674 185.777 57.3353 184.651 56.2093C184.106 55.664 183.38 55.3635 182.608 55.3635C181.837 55.3635 181.112 55.664 180.567 56.2085L179.397 57.3782L178.882 57.103C178.211 56.7445 177.502 56.4508 176.773 56.2295L176.215 56.0595V54.4067C176.215 53.0391 175.242 51.8483 173.902 51.5765C173.714 51.5386 173.519 51.5193 173.327 51.5193C172.557 51.5193 171.831 51.8197 171.286 52.365C170.74 52.9112 170.44 53.6358 170.44 54.4067V56.0595L169.882 56.2295C169.153 56.4508 168.444 56.7454 167.773 57.103L167.258 57.3782L166.088 56.2085C164.963 55.0833 163.13 55.0833 162.004 56.2085C161.459 56.7538 161.159 57.4792 161.159 58.2509C161.159 59.0226 161.459 59.7472 162.005 60.2925L163.174 61.4623L162.899 61.9774C162.541 62.6481 162.247 63.3575 162.025 64.0863L161.855 64.6451H160.202C158.61 64.6451 157.314 65.9403 157.314 67.5325C157.314 68.3034 157.615 69.0288 158.16 69.5741C158.706 70.1195 159.431 70.4199 160.202 70.4199H161.855L162.025 70.9778C162.247 71.7066 162.541 72.4161 162.899 73.0868L163.174 73.6018L162.005 74.7716C160.879 75.8976 160.879 77.7297 162.005 78.8557C162.55 79.4002 163.275 79.7006 164.047 79.7006C164.819 79.7006 165.544 79.4002 166.089 78.8549L167.259 77.6851L167.774 77.9603C168.445 78.3188 169.154 78.6125 169.883 78.8347L170.441 79.0047V80.6575C170.441 82.2497 171.736 83.5449 173.328 83.5449C173.515 83.5449 173.704 83.5264 173.89 83.4902L173.978 83.4717C174.505 83.3505 174.985 83.0845 175.37 82.6991C175.915 82.1529 176.216 81.4284 176.216 80.6575V79.0047L176.774 78.8347C177.503 78.6133 178.212 78.3188 178.883 77.9603L179.398 77.6851L180.568 78.8557C181.111 79.3994 181.837 79.6989 182.609 79.6989C183.382 79.6989 184.107 79.3993 184.652 78.8549C185.196 78.3095 185.497 77.5841 185.497 76.8124C185.497 76.0415 185.196 75.3161 184.651 74.7708L183.481 73.6018L183.756 73.0868C184.115 72.4161 184.409 71.7058 184.631 70.9778L184.801 70.4199H186.454C188.045 70.4207 189.341 69.1256 189.341 67.5333ZM179.301 73.059C177.914 74.5579 176.032 75.476 174.002 75.6426C173.785 75.6611 173.556 75.6712 173.327 75.6712C168.839 75.6712 165.188 72.0205 165.188 67.5333C165.188 63.0461 168.839 59.3954 173.327 59.3954C173.557 59.3954 173.788 59.4056 174.012 59.4249C176.034 59.5907 177.914 60.508 179.302 62.0077C180.697 63.5157 181.466 65.4783 181.466 67.5342C181.465 69.5893 180.696 71.5518 179.301 73.059Z" fill="#2525AD"/>
<path d="M297.274 193.261L297.272 193.263C297.237 193.334 297.205 193.408 297.175 193.485C296.598 194.983 297.348 196.673 298.847 197.25C300.346 197.827 302.036 197.076 302.613 195.578C302.642 195.501 302.667 195.425 302.688 195.352C303.113 193.906 302.344 192.353 300.94 191.812C299.538 191.272 297.926 191.908 297.274 193.261Z" fill="#2525AD"/>
<path d="M303.65 184.776C303.181 184.595 302.668 184.609 302.208 184.812C301.747 185.017 301.395 185.388 301.214 185.858L300.826 186.865L300.446 186.837C299.95 186.801 299.448 186.814 298.956 186.875L298.578 186.922L298.14 185.935C297.718 184.985 296.602 184.556 295.652 184.977C295.191 185.182 294.839 185.553 294.658 186.023C294.477 186.493 294.49 187.005 294.694 187.465L295.133 188.452L294.844 188.701C294.469 189.026 294.123 189.389 293.817 189.781L293.582 190.081L292.575 189.693C291.742 189.373 290.788 189.686 290.309 190.438C290.241 190.544 290.184 190.658 290.139 190.775C289.958 191.244 289.971 191.757 290.175 192.217C290.379 192.678 290.75 193.031 291.22 193.211L292.227 193.599L292.2 193.979C292.163 194.475 292.177 194.977 292.238 195.469L292.285 195.848L291.297 196.286C290.348 196.708 289.918 197.824 290.34 198.774C290.544 199.233 290.915 199.587 291.386 199.768C291.855 199.949 292.368 199.936 292.828 199.732L293.816 199.293L294.065 199.582C294.389 199.957 294.752 200.303 295.144 200.608L295.445 200.843L295.057 201.851C294.683 202.821 295.169 203.913 296.139 204.287C296.609 204.468 297.121 204.454 297.582 204.251C298.042 204.046 298.395 203.675 298.576 203.205L298.964 202.198L299.344 202.226C299.84 202.262 300.341 202.249 300.834 202.188L301.211 202.141L301.65 203.128C302.072 204.078 303.187 204.507 304.138 204.086C304.597 203.881 304.951 203.51 305.132 203.04C305.312 202.57 305.3 202.058 305.095 201.597L304.657 200.61L304.946 200.361C305.321 200.036 305.667 199.673 305.972 199.281L306.207 198.981L307.214 199.369C308.185 199.742 309.277 199.257 309.651 198.287C309.695 198.173 309.727 198.053 309.749 197.931L309.759 197.873C309.808 197.524 309.759 197.169 309.614 196.844C309.409 196.384 309.038 196.03 308.569 195.85L307.561 195.462L307.589 195.082C307.624 194.586 307.612 194.085 307.551 193.592L307.504 193.214L308.491 192.775C308.95 192.572 309.302 192.2 309.484 191.729C309.665 191.259 309.653 190.746 309.449 190.287C309.244 189.827 308.873 189.474 308.403 189.293C307.933 189.112 307.421 189.124 306.96 189.329L305.974 189.767L305.725 189.479C305.4 189.103 305.036 188.758 304.645 188.452L304.345 188.217L304.733 187.21C305.105 186.243 304.621 185.15 303.65 184.776ZM304.663 192.189C305.251 193.385 305.368 194.747 304.994 196.023C304.955 196.16 304.907 196.301 304.853 196.441C303.8 199.174 300.72 200.543 297.986 199.49C295.253 198.437 293.884 195.357 294.937 192.624C294.991 192.483 295.052 192.345 295.116 192.214C295.691 191.021 296.691 190.091 297.93 189.597C299.176 189.101 300.552 189.093 301.804 189.576C303.056 190.056 304.071 190.985 304.663 192.189Z" fill="#2525AD"/>
</svg>
