<svg width="262" height="109" viewBox="0 0 262 109" fill="none" xmlns="http://www.w3.org/2000/svg">
<g clip-path="url(#clip0_73_196)">
<path d="M37.6973 61L11.4276 44.5072L16.3091 37.873L35.7871 50.1017L59.1015 21.937L66 26.8092L37.6973 61Z" fill="#0D173A"/>
<path d="M34.4092 45.0106L7.2699 27.6776L28.8223 0L48.4276 12.1241L48.6676 12.3265C50.8445 14.1646 52.2016 16.6861 52.474 19.3988C52.7463 22.1115 51.9143 24.8206 50.1405 26.9971C48.3667 29.1736 45.7783 30.6614 42.8807 31.1698C39.9832 31.6783 36.9845 31.1709 34.4702 29.7469L34.3161 29.6591L24.4991 22.9859L29.6487 16.5256L39.1407 22.98C40.5045 23.6771 42.2678 23.3399 43.2129 22.1822C44.1349 21.051 44.0271 19.444 42.9975 18.4211L30.968 10.9807L19.4849 25.7258L39.3475 38.4117L34.4092 45.0106Z" fill="#0D173A"/>
<path d="M4.83972 31.1975L0.0012207 37.8586L6.7418 42.0362L11.5803 35.3751L4.83972 31.1975Z" fill="#0D173A"/>
</g>
<path d="M14.2737 95.1635L23.2023 85H21.0872L13.3313 93.823L7.14125 85H0L9.3626 98.3433L0 109H2.11504L10.3002 99.6806L16.8388 109H23.98M2.8784 86.5619H6.12769L21.0856 107.515H17.8355" fill="#0D173A"/>
<g clip-path="url(#clip1_73_196)">
<path d="M51.98 87.163C55.184 87.163 55.564 87.175 56.83 87.233C60.082 87.381 61.601 88.924 61.749 92.152C61.807 93.417 61.818 93.797 61.818 97.001C61.818 100.206 61.806 100.585 61.749 101.85C61.6 105.075 60.085 106.621 56.83 106.769C55.564 106.827 55.186 106.839 51.98 106.839C48.776 106.839 48.396 106.827 47.131 106.769C43.871 106.62 42.36 105.07 42.212 101.849C42.154 100.584 42.142 100.205 42.142 97C42.142 93.796 42.155 93.417 42.212 92.151C42.361 88.924 43.876 87.38 47.131 87.232C48.397 87.175 48.776 87.163 51.98 87.163ZM51.98 85C48.721 85 48.313 85.014 47.033 85.072C42.675 85.272 40.253 87.69 40.053 92.052C39.994 93.333 39.98 93.741 39.98 97C39.98 100.259 39.994 100.668 40.052 101.948C40.252 106.306 42.67 108.728 47.032 108.928C48.313 108.986 48.721 109 51.98 109C55.239 109 55.648 108.986 56.928 108.928C61.282 108.728 63.71 106.31 63.907 101.948C63.966 100.668 63.98 100.259 63.98 97C63.98 93.741 63.966 93.333 63.908 92.053C63.712 87.699 61.291 85.273 56.929 85.073C55.648 85.014 55.239 85 51.98 85ZM51.98 90.838C48.577 90.838 45.818 93.597 45.818 97C45.818 100.403 48.577 103.163 51.98 103.163C55.383 103.163 58.142 100.404 58.142 97C58.142 93.597 55.383 90.838 51.98 90.838ZM51.98 101C49.771 101 47.98 99.21 47.98 97C47.98 94.791 49.771 93 51.98 93C54.189 93 55.98 94.791 55.98 97C55.98 99.21 54.189 101 51.98 101ZM58.386 89.155C57.59 89.155 56.945 89.8 56.945 90.595C56.945 91.39 57.59 92.035 58.386 92.035C59.181 92.035 59.825 91.39 59.825 90.595C59.825 89.8 59.181 89.155 58.386 89.155Z" fill="#0D173A"/>
</g>
<g clip-path="url(#clip2_73_196)">
<path d="M99.595 88.1839C95.991 87.9379 87.964 87.9389 84.365 88.1839C80.468 88.4499 80.009 90.8039 79.98 96.9999C80.009 103.185 80.464 105.549 84.365 105.816C87.965 106.061 95.991 106.062 99.595 105.816C103.492 105.55 103.951 103.196 103.98 96.9999C103.951 90.8149 103.496 88.4509 99.595 88.1839ZM88.98 101V92.9999L96.98 96.9929L88.98 101Z" fill="#0D173A"/>
</g>
<g clip-path="url(#clip3_73_196)">
<path d="M138.98 85H124.98C122.219 85 119.98 87.239 119.98 90V104C119.98 106.761 122.219 109 124.98 109H138.98C141.742 109 143.98 106.761 143.98 104V90C143.98 87.239 141.742 85 138.98 85ZM127.98 104H124.98V93H127.98V104ZM126.48 91.732C125.514 91.732 124.73 90.942 124.73 89.968C124.73 88.994 125.514 88.204 126.48 88.204C127.446 88.204 128.23 88.994 128.23 89.968C128.23 90.942 127.447 91.732 126.48 91.732ZM139.98 104H136.98V98.396C136.98 95.028 132.98 95.283 132.98 98.396V104H129.98V93H132.98V94.765C134.376 92.179 139.98 91.988 139.98 97.241V104Z" fill="#0D173A"/>
</g>
<defs>
<clipPath id="clip0_73_196">
<rect width="66" height="61" fill="white"/>
</clipPath>
<clipPath id="clip1_73_196">
<rect width="24" height="24" fill="white" transform="translate(39.98 85)"/>
</clipPath>
<clipPath id="clip2_73_196">
<rect width="24" height="24" fill="white" transform="translate(79.98 85)"/>
</clipPath>
<clipPath id="clip3_73_196">
<rect width="24" height="24" fill="white" transform="translate(119.98 85)"/>
</clipPath>
</defs>
</svg>
